<?xml version="1.0" encoding="utf-8"?><svg viewBox="0 0 40 43" xmlns="http://www.w3.org/2000/svg" xmlns:xlink="http://www.w3.org/1999/xlink"><style>:root>svg{display:none}:root>svg:target{display:block}</style><svg fill="none" viewBox="0 0 18 21" id="doc-1" xmlns="http://www.w3.org/2000/svg"><path d="M16.813 4.609L13.33 1.127c-.413-.413-1.239-.76-1.83-.76h-10C.908.368.429.848.429 1.44v17.858c0 .591.48 1.07 1.071 1.07h15c.591 0 1.071-.479 1.071-1.07V6.439c0-.591-.346-1.417-.759-1.83zm-4.956-2.723c.19.067.38.167.458.245l3.493 3.494c.078.078.179.267.246.457h-4.197V1.886zm4.286 17.053H1.857V1.796h8.572V6.44c0 .592.48 1.072 1.071 1.072h4.643v11.428zM4.714 9.296v.715c0 .2.157.357.357.357h7.858c.2 0 .357-.156.357-.357v-.715c0-.2-.156-.357-.357-.357H5.07c-.2 0-.357.157-.357.357zm8.215 2.5H5.07c-.2 0-.357.157-.357.358v.714c0 .2.157.357.357.357h7.858c.2 0 .357-.156.357-.357v-.714c0-.201-.156-.357-.357-.357zm0 2.858H5.07c-.2 0-.357.156-.357.357v.714c0 .201.157.357.357.357h7.858c.2 0 .357-.156.357-.357v-.714c0-.201-.156-.357-.357-.357z" fill="#272733"/></svg><svg fill="none" viewBox="0 0 40 43" id="document" xmlns="http://www.w3.org/2000/svg"><path d="M15.993 23.372v-1.285c0-.362.281-.643.643-.643H30.78c.361 0 .643.281.643.643v1.285a.635.635 0 01-.643.643H16.636a.635.635 0 01-.643-.643zM16.636 26.587H30.78c.361 0 .643.281.643.643v1.285a.635.635 0 01-.643.643H16.636a.635.635 0 01-.643-.643V27.23c0-.362.281-.643.643-.643zM16.636 31.73H30.78c.361 0 .643.28.643.642v1.286a.635.635 0 01-.643.643H16.636a.635.635 0 01-.643-.643v-1.286c0-.361.281-.642.643-.642z" fill="#fff"/><path fill-rule="evenodd" clip-rule="evenodd" d="M8.279 15.315a7.415 7.415 0 117.173-9.3h12.755c1.065 0 2.552.623 3.295 1.366l6.268 6.268c.743.744 1.366 2.23 1.366 3.295v23.143a1.93 1.93 0 01-1.928 1.928h-27a1.93 1.93 0 01-1.93-1.928V15.315zm2.571-.458a7.421 7.421 0 004.813-6.27h10.616v8.357a1.93 1.93 0 001.928 1.928h8.358v20.572H10.85V14.857zm18.824-5.668c-.14-.14-.482-.321-.824-.442v7.554h7.554c-.12-.341-.301-.683-.442-.824L29.674 9.19zM9.279 8.9h4v-2h-4v-4h-2v4h-4v2h4v4h2v-4z" fill="#fff"/></svg><svg fill="none" viewBox="0 0 20 20" id="dot" xmlns="http://www.w3.org/2000/svg"><path d="M10 13a3 3 0 100-6 3 3 0 000 6z" fill="#C4C4C4"/></svg><svg fill="none" viewBox="0 0 37 29" id="mail" xmlns="http://www.w3.org/2000/svg"><path d="M33.795 25.107a.661.661 0 01-.643.643H3.581a.661.661 0 01-.643-.643V9.68c.422.482.884.924 1.386 1.325 2.873 2.21 5.766 4.46 8.558 6.79 1.507 1.266 3.375 2.813 5.464 2.813h.04c2.09 0 3.958-1.547 5.465-2.812 2.792-2.33 5.685-4.58 8.558-6.79.502-.402.964-.844 1.386-1.326v15.428zm0-21.114c0 1.708-1.647 3.938-2.953 4.962-2.692 2.11-5.384 4.24-8.056 6.369-1.065.864-2.993 2.712-4.4 2.712h-.04c-1.406 0-3.334-1.849-4.4-2.712-2.67-2.13-5.363-4.26-8.055-6.369C4.083 7.53 2.938 5.54 2.938 3.25c0-.342.301-.643.643-.643h29.571c.764 0 .643.884.643 1.386zm2.572-.743A3.224 3.224 0 0033.152.036H3.581A3.224 3.224 0 00.367 3.25v21.857a3.224 3.224 0 003.214 3.214h29.571a3.224 3.224 0 003.215-3.214V3.25z" fill="#fff"/></svg><svg fill="none" viewBox="0 0 16 13" id="mail-1" xmlns="http://www.w3.org/2000/svg"><path d="M14.75 10.85a.275.275 0 01-.268.267H2.162a.275.275 0 01-.269-.268V4.421c.176.2.369.385.578.552 1.197.92 2.402 1.858 3.566 2.83.627.527 1.406 1.171 2.276 1.171h.017c.87 0 1.65-.644 2.277-1.172a114.812 114.812 0 013.566-2.829c.209-.167.402-.352.577-.552v6.428zm0-8.798c0 .711-.686 1.64-1.23 2.067a517.902 517.902 0 00-3.357 2.654c-.443.36-1.247 1.13-1.833 1.13h-.017c-.586 0-1.39-.77-1.833-1.13a518.446 518.446 0 00-3.356-2.654c-.754-.594-1.23-1.423-1.23-2.377 0-.142.125-.268.267-.268h12.321c.319 0 .268.368.268.578zm1.072-.31c0-.737-.603-1.34-1.34-1.34H2.162c-.738 0-1.34.603-1.34 1.34v9.107c0 .737.602 1.34 1.34 1.34h12.32c.737 0 1.34-.603 1.34-1.34V1.742z" fill="#3E9CDC"/></svg><svg fill="none" viewBox="0 0 39 27" id="money" xmlns="http://www.w3.org/2000/svg"><path d="M15.729 18.536v-1.929H18.3v-5.786h-.04c-.321.503-.623.724-1.105 1.146l-1.547-1.608 2.973-2.752h2.29v9h2.572v1.929h-7.714zm10.286-5.143c0-3.656-2.21-8.357-6.43-8.357-4.218 0-6.428 4.7-6.428 8.357 0 3.656 2.21 8.357 6.429 8.357s6.429-4.7 6.429-8.357zM36.3 18.536a5.153 5.153 0 00-5.143 5.143H8.014a5.153 5.153 0 00-5.142-5.143V8.25a5.153 5.153 0 005.142-5.143h23.143A5.153 5.153 0 0036.3 8.25v10.286zM38.872 1.82c0-.703-.583-1.285-1.286-1.285h-36C.883.536.3 1.118.3 1.82v23.143c0 .703.583 1.286 1.286 1.286h36c.703 0 1.286-.583 1.286-1.286V1.821z" fill="#fff"/></svg><svg fill="none" viewBox="0 0 31 32" id="percent" xmlns="http://www.w3.org/2000/svg"><path d="M25.786 23.964a2.59 2.59 0 01-2.572 2.572 2.59 2.59 0 01-2.571-2.572 2.59 2.59 0 012.571-2.571 2.59 2.59 0 012.572 2.571zM10.357 8.536a2.59 2.59 0 01-2.571 2.571 2.59 2.59 0 01-2.572-2.571 2.59 2.59 0 012.572-2.572 2.59 2.59 0 012.571 2.572zM30.93 23.964a7.716 7.716 0 00-7.715-7.714 7.716 7.716 0 00-7.714 7.714 7.716 7.716 0 007.714 7.715 7.716 7.716 0 007.715-7.715zM29 2.107c0-.703-.583-1.286-1.286-1.286H24.5c-.402 0-.784.201-1.025.523L2.261 29.629c-.16.221-.261.483-.261.764 0 .703.583 1.286 1.286 1.286H6.5c.402 0 .783-.201 1.025-.523L28.739 2.871c.16-.221.261-.483.261-.764zM15.5 8.536A7.716 7.716 0 007.786.82 7.716 7.716 0 00.07 8.536a7.716 7.716 0 007.715 7.714A7.716 7.716 0 0015.5 8.536z" fill="#fff"/></svg><svg fill="none" viewBox="0 0 21 20" id="qiwi" xmlns="http://www.w3.org/2000/svg"><path d="M16.912 13.456c.06.388-.067.552-.195.552s-.314-.158-.521-.47c-.207-.313-.278-.661-.178-.84a.287.287 0 01.17-.126.298.298 0 01.213.022c.341.124.475.63.51.862zm-1.888.85c.41.335.535.733.318 1.013a.687.687 0 01-.55.238.998.998 0 01-.626-.218c-.37-.314-.48-.825-.237-1.114a.534.534 0 01.434-.176c.245.008.479.099.661.257zm-.684 3.23c1.762 0 3.674.585 5.791 2.4.211.18.493-.045.309-.27-2.08-2.54-4.008-3.025-5.922-3.433-2.346-.502-3.554-1.78-4.4-3.182-.166-.279-.242-.23-.257.13a7.655 7.655 0 00.124 1.59H9.7a6.226 6.226 0 01-3.377-.992 5.927 5.927 0 01-2.239-2.639 5.701 5.701 0 01-.345-3.397A5.823 5.823 0 015.4 4.733a6.145 6.145 0 013.112-1.61 6.27 6.27 0 013.512.335 6.04 6.04 0 012.728 2.166 5.744 5.744 0 01.986 3.95 9.38 9.38 0 00-1.93-.035c-.232.02-.198.13-.025.154 2.004.35 3.391 1.55 3.706 3.74a.053.053 0 00.014.03.055.055 0 00.062.014.055.055 0 00.026-.021 8.658 8.658 0 001.24-5.608 8.78 8.78 0 00-2.554-5.176 9.31 9.31 0 00-5.29-2.59A9.46 9.46 0 005.165 1.15a9.001 9.001 0 00-3.94 4.286 8.625 8.625 0 00-.417 5.72 8.884 8.884 0 003.28 4.779 9.399 9.399 0 005.612 1.849c1.343.004 2.68-.25 4.641-.25v.002z" fill="#3E9CDC"/></svg><svg fill="none" viewBox="0 0 35 35" id="search" xmlns="http://www.w3.org/2000/svg"><path d="M23.929 14.929c0 4.962-4.038 9-9 9s-9-4.038-9-9 4.038-9 9-9 9 4.038 9 9zm10.285 16.714c0-.683-.281-1.346-.743-1.808l-6.89-6.89a14.11 14.11 0 002.49-8.016C29.071 7.114 22.743.786 14.93.786 7.114.786.786 7.114.786 14.929c0 7.814 6.328 14.142 14.143 14.142a14.11 14.11 0 008.015-2.49l6.89 6.87a2.522 2.522 0 001.809.763 2.59 2.59 0 002.571-2.571z" fill="#fff"/></svg><svg fill="none" viewBox="0 0 12 14" id="vkontakte" xmlns="http://www.w3.org/2000/svg"><path d="M11.18 9.286c0 .65-.123 1.222-.369 1.714s-.577.9-.993 1.222a4.598 4.598 0 01-1.626.826c-.586.164-1.333.246-2.241.246H.713V.207h4.623c.96 0 1.687.038 2.18.114.497.07.963.223 1.397.457.469.252.817.59 1.046 1.011.234.422.351.908.351 1.46 0 .638-.16 1.206-.483 1.704a2.793 2.793 0 01-1.318 1.099v.07c.808.17 1.456.519 1.942 1.046.486.522.73 1.228.73 2.118zM6.97 3.907c0-.21-.055-.427-.167-.65a.961.961 0 00-.5-.483 2.042 2.042 0 00-.774-.15 36.06 36.06 0 00-1.318-.017h-.229v2.768h.413c.563 0 .955-.006 1.178-.017.229-.012.463-.074.703-.185.264-.123.445-.293.545-.51.1-.217.15-.469.15-.756zm.827 5.318c0-.405-.082-.721-.246-.95-.165-.228-.41-.4-.739-.518-.199-.076-.474-.117-.826-.123a43.437 43.437 0 00-1.397-.018h-.607v3.279h.176c.855 0 1.447-.006 1.775-.018.328-.012.662-.09 1.002-.237.3-.13.516-.317.65-.563.141-.252.212-.536.212-.852z" fill="#3E9CDC"/></svg><svg fill="none" viewBox="0 0 19 18" id="web-money" xmlns="http://www.w3.org/2000/svg"><path d="M9.34 0c1.411 0 2.753.323 3.957.901.189.085.379.187.567.29l-.826.73L11.801.647l-2.133 1.87-1.256-1.343L4.49 4.66l2.511 2.737-.98.85 2.477 2.738-.98.85 3.543 3.893 2.098-1.904 1.824 2.04c-.362.273-.758.546-1.187.783a9.07 9.07 0 01-4.438 1.156c-4.971 0-9.012-3.995-9.012-8.909C.328 4.013 4.37 0 9.34 0zM7.69 8.349l2.15-1.905 1.926 2.126-2.15 1.904-1.927-2.125zm1.53 3.672l2.133-1.92 1.944 2.124-2.15 1.905L9.22 12.02zM6.16 4.727l2.149-1.904 1.926 2.125-2.15 1.904L6.16 4.727zm3.937-1.02l1.6-1.429 1.445 1.582-1.6 1.445-1.445-1.598zm2.856 6.546l1.6-1.428 1.444 1.597-1.6 1.43-1.444-1.6zm1.41 3.214l1.6-1.429 1.444 1.582-1.6 1.444-1.444-1.597zm.654-7.346l1.066-.952.963 1.054-1.066.952-.963-1.054zM13.64 2.975l1.066-.968.964 1.07-1.067.953-.963-1.055zm2.734 6.292l1.067-.952.98 1.054-1.083.952-.963-1.054zm-4.798-2.364l1.6-1.428 1.444 1.581-1.599 1.429-1.445-1.582z" fill="#3E9CDC"/></svg><svg fill="none" viewBox="0 0 15 18" id="yandex" xmlns="http://www.w3.org/2000/svg"><path fill-rule="evenodd" clip-rule="evenodd" d="M.78 8.93c0-.983.083-1.608 2.138-3.13C4.62 4.542 10.073.238 10.073.238v7.185h4.147v10.34H2.075A1.294 1.294 0 01.78 16.479V8.93z" fill="#3E9CDC"/><path fill-rule="evenodd" clip-rule="evenodd" d="M10.073 7.422v4.163l-7.62 5.148 9.634-3.108V7.422h-2.014z" fill="#000" fill-opacity=".2"/><path fill-rule="evenodd" clip-rule="evenodd" d="M6.59 7.207c.446-.527 1.097-.713 1.454-.415.358.297.286.965-.16 1.492-.445.526-1.096.712-1.453.415-.358-.298-.286-.966.16-1.492z" fill="#231F20"/></svg></svg>